<svg id="Inquam" xmlns="http://www.w3.org/2000/svg" viewBox="0 0 77.59 17.66"><defs><style>.cls-1{fill:#333;}.cls-2{fill:#eb8355;}</style></defs><path class="cls-1" d="M0,2.68H3.16v11.5H0Zm17.21,0v11.5h-2.6L9.31,7.84v6.34H6.21V2.68h2.6L14.11,9V2.68ZM42.91,14.4a5.54,5.54,0,0,1-4-1.38,5,5,0,0,1-1.44-3.8V2.68h3.16V9.12a3,3,0,0,0,.58,2,2.18,2.18,0,0,0,1.74.68,2.09,2.09,0,0,0,1.7-.68,3,3,0,0,0,.58-2V2.68h3.12V9.22A5,5,0,0,1,46.91,13,5.54,5.54,0,0,1,42.91,14.4Zm15.78-2.5H53.31l-1,2.28H49.29l5.16-11.5h3.12l5.18,11.5H59.63Zm-1-2.28L56,5.46,54.27,9.62Zm16.9,4.56,0-6.28L71.53,13H70.11L67.05,8.1v6.08H64.11V2.68h2.64l4.12,6.68,4-6.68h2.66l0,11.5Z"/><path class="cls-2" d="M36.13,15.94a5.21,5.21,0,0,1-4.08,1.72,7.15,7.15,0,0,1-3.29-.72,13.37,13.37,0,0,1-3.24-2.64A8,8,0,0,1,22.38,13a7.13,7.13,0,0,1-2.14-2.47,7,7,0,0,1-.77-3.24,6.94,6.94,0,0,1,1-3.72A7.11,7.11,0,0,1,23.34.94,8.7,8.7,0,0,1,27.42,0a8.58,8.58,0,0,1,4,.94,7,7,0,0,1,2.86,2.59,6.85,6.85,0,0,1,1,3.72,6.87,6.87,0,0,1-1.25,4.05,7.34,7.34,0,0,1-3.36,2.6,2.28,2.28,0,0,0,.65.43,1.88,1.88,0,0,0,.74.14,2.68,2.68,0,0,0,2-.89ZM27.42,3.7A3.1,3.1,0,0,0,25,4.7a3.61,3.61,0,0,0-.91,2.55A3.69,3.69,0,0,0,25,9.82a3.16,3.16,0,0,0,2.38,1,3,3,0,0,0,2.32-1,3.62,3.62,0,0,0,.94-2.57,3.54,3.54,0,0,0-.94-2.55A3,3,0,0,0,27.42,3.7Z"/></svg>