<?xml version="1.0" encoding="utf-8"?>
<!-- Generator: Adobe Illustrator 24.1.2, SVG Export Plug-In . SVG Version: 6.00 Build 0)  -->
<svg version="1.1" id="Capa_1" xmlns="http://www.w3.org/2000/svg" xmlns:xlink="http://www.w3.org/1999/xlink" x="0px" y="0px"
	 viewBox="0 0 168 222.6" style="enable-background:new 0 0 168 222.6;" xml:space="preserve">
<style type="text/css">
	.st0{enable-background:new    ;}
	.st1{fill:#DAD9D9;}
	.st2{fill:#EB8355;}
</style>
<g id="Logo">
	<g class="st0">
		<path class="st1" d="M165.2,182.8c-9,10.6-21.2,16.4-35.2,16.4c-17.6,0-31.4-7.6-51-27.8c-40.2-2.2-69.4-32-69.4-71.4
			c0-41,31.6-71.6,74.6-71.6c42.6,0,74.2,30.4,74.2,71.6c0,34.8-22.4,61.8-55,69.4c9.4,10,17.8,14,26.8,14c10,0,18.4-4,25.6-12
			L165.2,182.8z M84.2,153.8c31,0,54.2-23,54.2-53.8s-23.2-53.8-54.2-53.8c-31.4,0-54.6,23-54.6,53.8S52.8,153.8,84.2,153.8z"/>
	</g>
</g>
<g id="State">
	<path class="st2" d="M76.3,126.9c0-4.1,3.4-7.4,7.5-7.4c0.1,0,0.2,0,0.3,0c4-0.1,7.4,3,7.6,7.1c0,0.1,0,0.2,0,0.3
		c0.1,4.1-3.2,7.4-7.3,7.5c-0.1,0-0.2,0-0.3,0c-4.1,0.2-7.6-3.1-7.8-7.2C76.3,127.1,76.3,127,76.3,126.9z M77,66.5h14.2l-2.4,44.9
		h-9.5L77,66.5z"/>
</g>
</svg>
