<?xml version="1.0" encoding="utf-8"?>
<!-- Generator: Adobe Illustrator 24.1.2, SVG Export Plug-In . SVG Version: 6.00 Build 0)  -->
<svg version="1.1" id="Capa_1" xmlns="http://www.w3.org/2000/svg" xmlns:xlink="http://www.w3.org/1999/xlink" x="0px" y="0px"
	 viewBox="0 0 168 222.6" style="enable-background:new 0 0 168 222.6;" xml:space="preserve">
<style type="text/css">
	.st0{enable-background:new    ;}
	.st1{fill:#DAD9D9;}
	.st2{fill:#EB8355;}
</style>
<g id="Logo">
	<g class="st0">
		<path class="st1" d="M165.2,182.8c-9,10.6-21.2,16.4-35.2,16.4c-17.6,0-31.4-7.6-51-27.8c-40.2-2.2-69.4-32-69.4-71.4
			c0-41,31.6-71.6,74.6-71.6c42.6,0,74.2,30.4,74.2,71.6c0,34.8-22.4,61.8-55,69.4c9.4,10,17.8,14,26.8,14c10,0,18.4-4,25.6-12
			L165.2,182.8z M84.2,153.8c31,0,54.2-23,54.2-53.8s-23.2-53.8-54.2-53.8c-31.4,0-54.6,23-54.6,53.8S52.8,153.8,84.2,153.8z"/>
	</g>
</g>
<g id="State">
	<path class="st2" d="M118.1,104.7l-3.9,3.1l-28.5,22.8l-2.8,2.2c-0.2,0.2-0.5,0.2-0.8,0.1l0,0l-7.2-3.2c-3.4-1.5-21.5-8.4-22.7-9
		c-0.7-0.4-1.1-1.1-1.3-1.9c-0.4-1.9-0.3-3.9,0.1-5.8l0,0c0-0.1,0-0.2,0.1-0.3c-0.3-0.2-0.6-0.3-0.8-0.6c0.4,0.2,0.8,0.3,1.3,0.6
		c0.8,0.4,1.5,0.8,2.3,1.2c1.2,0.6,21.3,8.7,23,9.4c1.5,0.7,3.2,1.2,4.8,1.8c1,0.5,2.3,0.3,3.1-0.5l3-2.6L120,96.2
		c0.7-0.5,0.8-1.5,0.3-2.1c-0.5-0.7-1.5-0.8-2.1-0.3l0,0l0,0l-3.9,3.1l-28.6,22.7l-2.8,2.3c-0.2,0.2-0.6,0.2-0.8,0.1l0,0l-7.2-3.2
		c-3.4-1.5-21.5-8.3-22.7-9c-0.7-0.5-1.2-1.2-1.3-2c-0.4-1.9-0.3-3.9,0.1-5.8l0,0c0,0,0,0,0-0.1c0.1,0,0.1,0.1,0.2,0.1
		c0.8,0.4,1.5,0.8,2.3,1.2c1.2,0.6,21.3,8.7,23,9.4c1.5,0.7,3.2,1.2,4.8,1.8c1,0.5,2.3,0.3,3.1-0.5l3-2.6l32.4-25.9
		c0.7-0.5,0.8-1.4,0.3-2.1s-1.4-0.8-2.1-0.3l0,0l-0.1,0.1l-3.9,3.1l-28.6,22.7l-2.8,2.2c-0.2,0.2-0.6,0.2-0.8,0.1l0,0l-7.2-3.2
		c-3.4-1.5-21.5-8.3-22.7-9c-0.7-0.5-1.2-1.2-1.3-2c-0.4-1.9-0.3-3.9,0.1-5.8l0,0c0.1-0.7,0.8-1.2,1.5-1.1c0,0,0,0,0,0l0.3,0.1
		c0,0,24.6,9.6,24.9,9.7l3,1.1l0.3,0.1c0.3,0.1,0.6,0.1,0.8,0.1c0.4-0.1,0.7-0.2,1-0.4l0.6-0.5c2.9-2.2,5.9-4.4,8.8-6.6l2.7-2
		l0.2-0.2l7.7-5.8c0.1-0.1,0.3-0.2,0.4-0.3c3.9-2.9,7.8-5.9,11.7-8.8c1.4-1,1.3-2.6-0.4-3.3l-4.1-1.6l0,0l-6-2.4l-9.8-3.9
		c-2.5-0.9-4.9-1.8-7.4-2.6c-2.1-0.8-4.5-0.5-6.3,0.9l-0.2,0.1L71,70.4c-3.5,2.4-7,4.8-10.5,7.1l-1.8,1.2c-2.9,2.1-5.8,4.2-8.7,6.3
		L50,85.2c-0.9,0.7-1.6,1.6-1.9,2.7c-0.1,0.2-0.1,0.4-0.2,0.6c-0.2,0.8-0.4,1.5-0.5,2.3c-0.2,1.5-0.2,3,0,4.5
		c0.1,0.7,0.2,1.4,0.3,2.1c0.1,0.6,0.2,1.3,0.4,1.9c-0.2,0.7-0.3,1.3-0.4,2c-0.2,1.5-0.2,3,0,4.5c0.1,0.7,0.2,1.4,0.3,2.1
		c0.1,0.5,0.2,1,0.3,1.5c0,0.1-0.1,0.3-0.1,0.4c-0.2,0.8-0.4,1.5-0.5,2.3c-0.2,1.5-0.2,3,0,4.5c0,0.7,0.1,1.5,0.2,2.2
		c0.1,0.8,0.3,1.5,0.5,2.3c0.2,0.6,0.6,1.1,1.1,1.5c0.6,0.3,1.2,0.6,1.8,0.9c0.8,0.4,1.5,0.8,2.3,1.2c1.2,0.6,21.3,8.6,23,9.4
		c1.5,0.7,3.2,1.2,4.8,1.8c1,0.5,2.3,0.3,3.1-0.5l3-2.6l32.4-25.9c0.7-0.5,0.8-1.4,0.3-2.1C119.7,104.3,118.8,104.2,118.1,104.7
		L118.1,104.7L118.1,104.7z"/>
</g>
</svg>
