<svg xmlns="http://www.w3.org/2000/svg" viewBox="0 0 168 222.6"><defs><style>.cls-1{font-size:200px;fill:#dad9d9;font-family:Montserrat-Medium, Montserrat;font-weight:500;}.cls-2{fill:#eb8355;}</style></defs><g id="Logo"><text class="cls-1" transform="translate(0 170)">Q</text></g><g id="State"><path class="cls-2" d="M118.07,104.71l-3.94,3.13L85.59,130.65l-2.78,2.22A.83.83,0,0,1,82,133h0l-7.15-3.23c-3.36-1.52-21.47-8.36-22.7-9a2.93,2.93,0,0,1-1.29-1.95,14.38,14.38,0,0,1,.11-5.77v0a2,2,0,0,1,.07-.26,5.06,5.06,0,0,1-.84-.55c.41.2.85.33,1.25.57.75.44,1.54.8,2.32,1.18,1.21.61,21.26,8.65,23,9.43,1.54.69,3.17,1.18,4.75,1.79a2.83,2.83,0,0,0,3.1-.5l3-2.6,32.39-25.87a1.5,1.5,0,1,0-1.84-2.37l0,0-3.94,3.13L85.59,119.74,82.81,122a.81.81,0,0,1-.83.11h0l-7.15-3.23c-3.36-1.51-21.47-8.35-22.7-9a3,3,0,0,1-1.29-2,14.15,14.15,0,0,1,.11-5.76s0,0,0,0a.43.43,0,0,1,0-.05,1.11,1.11,0,0,1,.19.09c.75.44,1.54.8,2.32,1.18,1.22.61,21.26,8.66,23,9.43,1.54.69,3.17,1.18,4.75,1.79a2.83,2.83,0,0,0,3.1-.5l3-2.6,32.38-25.87a1.5,1.5,0,1,0-1.76-2.43l-.11.08-3.94,3.14L85.32,109.1l-2.79,2.23a.81.81,0,0,1-.83.11h0l-7.16-3.23c-3.36-1.51-21.47-8.35-22.7-9a3,3,0,0,1-1.29-2,14.33,14.33,0,0,1,.11-5.76s0,0,0,0a1.32,1.32,0,0,1,1.53-1.08l.26.07S77,100.06,77.3,100.16l3,1.08.25.08a1.8,1.8,0,0,0,.83.07,2.15,2.15,0,0,0,1-.44l.62-.47c2.93-2.21,5.87-4.43,8.81-6.63l2.69-2,.22-.16,7.67-5.76a5,5,0,0,0,.43-.35q5.85-4.4,11.71-8.78c1.37-1,1.34-2.58-.39-3.26l-4.1-1.6h0l-6-2.38-9.84-3.88c-2.46-.88-4.92-1.75-7.39-2.59a6.4,6.4,0,0,0-6.28.9l-.21.14L71,70.42Q65.72,74,60.51,77.56l-1.76,1.23C55.84,80.87,53,83,50.1,85.13l-.13.09a5,5,0,0,0-1.86,2.67c-.06.19-.11.38-.16.56a15.29,15.29,0,0,0-.48,2.33,20.1,20.1,0,0,0,0,4.52,21.43,21.43,0,0,0,.32,2.13c.12.61.24,1.3.41,1.93a15.82,15.82,0,0,0-.41,2,20.1,20.1,0,0,0,0,4.52,18.87,18.87,0,0,0,.33,2.13c.09.49.18,1,.3,1.54,0,.13-.08.26-.11.39a16.6,16.6,0,0,0-.48,2.33,20.1,20.1,0,0,0,0,4.52A21.43,21.43,0,0,0,48,119a19.88,19.88,0,0,0,.5,2.29,3.2,3.2,0,0,0,1.12,1.47,13.44,13.44,0,0,0,1.78.89c.75.44,1.54.79,2.32,1.18,1.22.61,21.26,8.65,23,9.43,1.54.69,3.17,1.18,4.75,1.79a2.85,2.85,0,0,0,3.1-.5l3-2.6,32.38-25.86a1.5,1.5,0,1,0-1.82-2.39l-.05,0Z"/></g></svg>