<svg xmlns="http://www.w3.org/2000/svg" viewBox="0 0 168 222.6"><defs><style>.cls-1{font-size:200px;font-family:Montserrat-Medium, Montserrat;font-weight:500;}.cls-1,.cls-2{fill:#eb8355;}</style></defs><g id="Logo"><text class="cls-1" transform="translate(0 170)">Q</text></g><g id="State"><path class="cls-2" d="M56,100.92a5.08,5.08,0,0,1,5.09-5.18,5.16,5.16,0,0,1,5.18,5.18,5.24,5.24,0,0,1-5.18,5.28A5.16,5.16,0,0,1,56,100.92Z"/><path class="cls-2" d="M77.59,99.72A6.35,6.35,0,0,1,84,93.24a6.45,6.45,0,0,1,6.48,6.48,6.56,6.56,0,0,1-6.48,6.6A6.46,6.46,0,0,1,77.59,99.72Z"/><path class="cls-2" d="M101.76,100.92a5.08,5.08,0,0,1,5.09-5.18,5.16,5.16,0,0,1,5.18,5.18,5.24,5.24,0,0,1-5.18,5.28A5.16,5.16,0,0,1,101.76,100.92Z"/></g></svg>