<?xml version="1.0" encoding="utf-8"?>
<!-- Generator: Adobe Illustrator 24.1.2, SVG Export Plug-In . SVG Version: 6.00 Build 0)  -->
<svg version="1.1" id="Capa_1" xmlns="http://www.w3.org/2000/svg" xmlns:xlink="http://www.w3.org/1999/xlink" x="0px" y="0px"
	 viewBox="0 0 168 222.6" style="enable-background:new 0 0 168 222.6;" xml:space="preserve">
<style type="text/css">
	.st0{enable-background:new    ;}
	.st1{fill:#EB8355;}
</style>
<g id="Logo">
	<g class="st0">
		<path class="st1" d="M165.2,182.8c-9,10.6-21.2,16.4-35.2,16.4c-17.6,0-31.4-7.6-51-27.8c-40.2-2.2-69.4-32-69.4-71.4
			c0-41,31.6-71.6,74.6-71.6c42.6,0,74.2,30.4,74.2,71.6c0,34.8-22.4,61.8-55,69.4c9.4,10,17.8,14,26.8,14c10,0,18.4-4,25.6-12
			L165.2,182.8z M84.2,153.8c31,0,54.2-23,54.2-53.8s-23.2-53.8-54.2-53.8c-31.4,0-54.6,23-54.6,53.8S52.8,153.8,84.2,153.8z"/>
	</g>
</g>
<g id="State">
	<path class="st1" d="M56,100.9c-0.1-2.8,2.2-5.1,5-5.2c0,0,0.1,0,0.1,0c2.8,0,5.2,2.3,5.2,5.1c0,0,0,0,0,0c0,2.9-2.3,5.2-5.2,5.3
		C58.2,106.2,56,103.8,56,100.9C56,101,56,100.9,56,100.9z"/>
	<path class="st1" d="M77.6,99.7c-0.1-3.5,2.7-6.4,6.2-6.5c0.1,0,0.1,0,0.2,0c3.6,0,6.5,2.9,6.5,6.4c0,0,0,0,0,0.1
		c0,3.6-2.9,6.6-6.5,6.6C80.4,106.3,77.6,103.4,77.6,99.7C77.6,99.8,77.6,99.8,77.6,99.7z"/>
	<path class="st1" d="M101.8,100.9c-0.1-2.8,2.2-5.1,5-5.2c0,0,0.1,0,0.1,0c2.8,0,5.2,2.3,5.2,5.1c0,0,0,0,0,0
		c0,2.9-2.3,5.2-5.2,5.3C104,106.2,101.7,103.8,101.8,100.9C101.8,101,101.8,100.9,101.8,100.9z"/>
</g>
</svg>
