<?xml version="1.0" encoding="utf-8"?>
<!-- Generator: Adobe Illustrator 24.1.2, SVG Export Plug-In . SVG Version: 6.00 Build 0)  -->
<svg version="1.1" id="Capa_1" xmlns="http://www.w3.org/2000/svg" xmlns:xlink="http://www.w3.org/1999/xlink" x="0px" y="0px"
	 viewBox="0 0 168 222.6" style="enable-background:new 0 0 168 222.6;" xml:space="preserve">
<style type="text/css">
	.st0{enable-background:new    ;}
	.st1{fill:#DAD9D9;}
	.st2{fill:#EB8355;}
</style>
<g id="Logo">
	<g class="st0">
		<path class="st1" d="M165.2,182.8c-9,10.6-21.2,16.4-35.2,16.4c-17.6,0-31.4-7.6-51-27.8c-40.2-2.2-69.4-32-69.4-71.4
			c0-41,31.6-71.6,74.6-71.6c42.6,0,74.2,30.4,74.2,71.6c0,34.8-22.4,61.8-55,69.4c9.4,10,17.8,14,26.8,14c10,0,18.4-4,25.6-12
			L165.2,182.8z M84.2,153.8c31,0,54.2-23,54.2-53.8s-23.2-53.8-54.2-53.8c-31.4,0-54.6,23-54.6,53.8S52.8,153.8,84.2,153.8z"/>
	</g>
</g>
<g id="State">
	<path class="st2" d="M106.2,90.7H97V79.9c0-7.2-5.8-13.1-13.1-13.1c-7.2,0-13.1,5.8-13.1,13.1v10.9h-9.3c-0.4,0-0.9,0.2-1.2,0.5
		c-0.3,0.3-0.5,0.7-0.5,1.2v38.1c0,0.4,0.2,0.8,0.5,1.1c0.3,0.3,0.7,0.5,1.2,0.5h44.6c0.4,0,0.8-0.2,1.2-0.5
		c0.3-0.3,0.5-0.7,0.5-1.1V92.4c0-0.4-0.2-0.8-0.5-1.2C107.1,90.9,106.7,90.7,106.2,90.7z M91.8,90.7H76v-11c0-4.4,3.5-7.9,7.9-7.9
		s7.9,3.5,7.9,7.9c0,0,0,0,0,0L91.8,90.7z"/>
</g>
</svg>
