<svg xmlns="http://www.w3.org/2000/svg" viewBox="0 0 168 222.6"><defs><style>.cls-1{font-size:200px;fill:#dad9d9;font-family:Montserrat-Medium, Montserrat;font-weight:500;}.cls-2{fill:#eb8355;}</style></defs><g id="Logo"><text class="cls-1" transform="translate(0 170)">Q</text></g><g id="State"><path class="cls-2" d="M106.24,90.74H97V79.86a13.06,13.06,0,1,0-26.12,0V90.74H61.62a1.63,1.63,0,0,0-1.16.48A1.65,1.65,0,0,0,60,92.37v38.1a1.65,1.65,0,0,0,.47,1.15,1.63,1.63,0,0,0,1.16.48h44.62a1.6,1.6,0,0,0,1.15-.48,1.62,1.62,0,0,0,.48-1.15V92.37a1.62,1.62,0,0,0-.48-1.15A1.6,1.6,0,0,0,106.24,90.74Zm-14.42,0H76v-11a7.89,7.89,0,1,1,15.78,0Z"/></g></svg>